<svg width="25" height="35" viewBox="0 0 25 35" fill="none" xmlns="http://www.w3.org/2000/svg">
<g id="Card-front">
<rect id="Rectangle 18" width="25" height="35" rx="3" fill="#FFF7D8"/>
<g id="Group 12">
<path id="K" d="M18.8316 19.8073C18.8208 19.7168 18.7933 19.6497 18.7491 19.6059C18.3284 19.7993 17.9462 19.9473 17.6026 20.0498C17.2564 20.1627 16.8415 20.2203 16.3577 20.2226C15.8818 20.2377 15.2895 20.2235 14.6678 20.0712C14.0462 19.9189 13.0753 19.9611 11.5286 18.7771C9.98193 17.5931 8.62192 16.2171 7.44859 14.6491C8.68592 13.6464 10.2646 12.4357 12.1846 11.0171C14.1153 9.59839 15.2033 8.91039 15.4486 8.95305V8.82505C15.1179 8.71839 14.8459 8.60639 14.6326 8.48905H14.5366C13.8219 8.95839 13.1179 9.46505 12.4246 10.0091C11.7313 10.5424 10.9046 11.1984 9.94459 11.9771C8.50459 13.1397 7.52326 13.9131 7.00059 14.2971C7.43792 12.4517 7.82192 10.8517 8.15259 9.49705C8.16326 9.43305 8.19526 9.38505 8.24859 9.35305C8.30192 9.31039 8.36059 9.28905 8.42459 9.28905L9.56059 9.25705C9.62459 8.96905 9.65659 8.74505 9.65659 8.58505L8.77659 8.66505C8.41392 8.69705 8.02992 8.72905 7.62459 8.76105C7.22992 8.78239 6.79792 8.79305 6.32859 8.79305C5.73126 8.79305 5.25126 8.76639 4.88859 8.71305C4.52592 8.65972 4.33392 8.54239 4.31259 8.36105C4.19526 8.36105 4.09392 8.47839 4.00859 8.71305C3.93392 8.93705 3.89659 9.12905 3.89659 9.28905C3.89659 9.37439 3.92326 9.43305 3.97659 9.46505C4.02992 9.48639 4.14192 9.49705 4.31259 9.49705C4.46192 9.49705 4.82459 9.47572 5.40059 9.43305C6.30726 9.37972 6.85659 9.35305 7.04859 9.35305C7.11259 9.35305 7.15526 9.37439 7.17659 9.41705C7.20859 9.44905 7.22459 9.48105 7.22459 9.51305C7.22459 9.66239 7.06992 10.4464 6.76059 11.8651C6.46192 13.2731 6.10459 14.7557 5.68859 16.3131C5.28326 17.8704 4.88859 19.1184 4.50459 20.0571C4.50459 20.1317 4.56326 20.1691 4.68059 20.1691C4.75526 20.1051 4.84592 20.0571 4.95259 20.0251C5.05926 20.0037 5.20326 19.9877 5.38459 19.9771C5.51259 19.9664 5.59792 19.9397 5.64059 19.8971C5.69392 19.8544 5.74192 19.7477 5.78459 19.5771C6.09392 18.1371 6.44592 16.6064 6.84059 14.9851C7.92859 16.5211 9.50992 18.0604 10.9686 19.1451C12.4273 20.2297 14.6678 20.6652 14.6678 20.6652C15.2895 20.8175 15.9069 20.8973 16.52 20.9048C17.141 20.9251 17.662 20.8606 18.083 20.7111C18.5118 20.5746 18.7618 20.3613 18.8328 20.0712C18.8531 19.9883 18.8527 19.9003 18.8316 19.8073Z" fill="#460101"/>
<path id="E" d="M11.7773 25.713C10.924 25.713 10.1987 25.5744 9.60134 25.297C9.004 25.0304 8.54534 24.657 8.22534 24.177C7.916 23.697 7.76134 23.1477 7.76134 22.529C7.76134 21.9317 7.916 21.297 8.22534 20.625C8.53467 19.9424 9.01467 19.249 9.66534 18.545C10.1453 18.0224 10.684 17.537 11.2813 17.089C11.8787 16.6304 12.4867 16.2144 13.1053 15.841C13.7347 15.4677 14.348 15.153 14.9453 14.897C15.5533 14.641 16.108 14.4544 16.6093 14.337C16.8867 14.273 17.164 14.225 17.4413 14.193C17.7293 14.1504 18.0067 14.129 18.2733 14.129C18.732 14.129 19.1533 14.1877 19.5373 14.305C19.9213 14.4224 20.2307 14.609 20.4653 14.865C20.7 15.121 20.8173 15.457 20.8173 15.873C20.8173 16.1077 20.7747 16.337 20.6893 16.561C20.6147 16.785 20.5507 16.9557 20.4973 17.073C20.4653 17.137 20.4333 17.169 20.4013 17.169C20.38 17.169 20.364 17.153 20.3533 17.121C20.3427 17.0784 20.348 17.0357 20.3693 16.993C20.4653 16.7797 20.5133 16.593 20.5133 16.433C20.5133 16.1664 20.396 15.9744 20.1613 15.857C19.9373 15.729 19.628 15.665 19.2333 15.665C18.7853 15.665 18.2573 15.7344 17.6493 15.873C17.0413 16.0117 16.396 16.2037 15.7133 16.449C15.0413 16.6944 14.3693 16.977 13.6973 17.297C13.0253 17.617 12.3907 17.969 11.7933 18.353C11.2067 18.7264 10.7 19.1104 10.2733 19.505C9.56934 20.1557 9.052 20.769 8.72134 21.345C8.40134 21.9104 8.24134 22.417 8.24134 22.865C8.24134 23.537 8.556 24.065 9.18534 24.449C9.81467 24.833 10.6573 25.025 11.7133 25.025C11.9907 25.025 12.2787 25.009 12.5773 24.977C12.876 24.945 13.1853 24.9024 13.5053 24.849C14.2627 24.7104 15.0307 24.5077 15.8093 24.241C16.5987 23.9637 17.3507 23.633 18.0653 23.249C18.7907 22.8544 19.4467 22.4224 20.0333 21.953C20.6307 21.473 21.116 20.9664 21.4893 20.433C21.596 20.2944 21.66 20.225 21.6813 20.225C21.692 20.225 21.6973 20.241 21.6973 20.273C21.6973 20.2944 21.6973 20.321 21.6973 20.353C21.6973 20.3744 21.6867 20.4117 21.6653 20.465C21.5587 20.7744 21.3293 21.121 20.9773 21.505C20.6253 21.889 20.1827 22.2837 19.6493 22.689C19.116 23.0837 18.524 23.4677 17.8733 23.841C17.2227 24.2144 16.54 24.5504 15.8253 24.849C15.1107 25.137 14.396 25.3557 13.6813 25.505C13.02 25.6437 12.3853 25.713 11.7773 25.713Z" fill="#460101"/>
</g>
</g>
</svg>
